Coordinates
version=1
nRows=14
nColumns=40
inDegrees=yes

Units are S.I. units (second, meters, Newtons, ...)
If the header above contains a line with 'inDegrees', this indicates whether rotational values are in degrees (yes) or radians (no).

endheader
time	pelvis_tilt	pelvis_list	pelvis_rotation	pelvis_tx	pelvis_ty	pelvis_tz	hip_flexion_r	hip_adduction_r	hip_rotation_r	knee_angle_r	knee_angle_r_beta	ankle_angle_r	subtalar_angle_r	mtp_angle_r	hip_flexion_l	hip_adduction_l	hip_rotation_l	knee_angle_l	knee_angle_l_beta	ankle_angle_l	subtalar_angle_l	mtp_angle_l	lumbar_extension	lumbar_bending	lumbar_rotation	arm_flex_r	arm_add_r	arm_rot_r	elbow_flex_r	pro_sup_r	wrist_flex_r	wrist_dev_r	arm_flex_l	arm_add_l	arm_rot_l	elbow_flex_l	pro_sup_l	wrist_flex_l	wrist_dev_l
      4.70000000	    -35.97590607	      6.50041324	      8.08022105	     -0.43558507	      0.71879800	     -0.91905089	     98.08707720	    -24.90362816	      5.69740631	     88.31125414	      1.54132215	     30.44618867	      0.00000000	      0.00000000	     93.59113325	      0.12351828	     -3.46412759	     84.58306161	      1.47625292	     30.69931266	      0.00000000	      0.00000000	    -38.58179931	      1.13511381	    -15.10092604	     -7.89296229	    -62.36205819	     58.91382377	    109.53287513	     87.91060242	      0.00000000	      0.00000000	      0.23087416	    -63.47030176	     68.31418796	    102.95316200	     88.13759712	      0.00000000	      0.00000000
      4.70500000	    -39.54930115	      6.26568538	      2.86042270	     -0.44548439	      0.71067137	     -0.90570213	    101.73470502	    -17.30037360	      5.78236829	     86.96123718	      1.51775991	     29.36310778	      0.00000000	      0.00000000	     98.09756240	     -6.43410076	     -2.99713312	     85.19211675	      1.48688293	     29.95675733	      0.00000000	      0.00000000	    -34.58789375	     -2.83208687	    -10.69131381	     -8.26912718	    -62.11897934	     59.23950330	    110.03196472	     87.93188297	      0.00000000	      0.00000000	     -0.70117859	    -64.78029888	     67.92569328	    104.05036215	     88.12775516	      0.00000000	      0.00000000
      4.71000000	    -39.65835005	      6.35281390	      2.74002155	     -0.44596805	      0.71044320	     -0.90555987	    101.90344416	    -17.11295845	      5.90728358	     86.92693862	      1.51716129	     29.27477765	      0.00000000	      0.00000000	     98.20800278	     -6.56966190	     -3.07248186	     85.21190987	      1.48722839	     30.14390165	      0.00000000	      0.00000000	    -34.54474325	     -2.97293735	    -10.71400366	     -8.52059401	    -62.10278278	     58.91453058	    110.08821149	     87.89188175	      0.00000000	      0.00000000	     -1.33711593	    -64.81847961	     67.21456842	    104.13782808	     88.15496796	      0.00000000	      0.00000000
      4.71500000	    -35.82272430	      6.74752099	      7.92930700	     -0.43599626	      0.71920249	     -0.91922368	     98.06053984	    -24.77869164	      5.96680901	     88.26206448	      1.54046363	     30.25159429	      0.00000000	      0.00000000	     93.38378410	      0.04224702	     -3.68833877	     84.57183091	      1.47605690	     30.67763355	      0.00000000	      0.00000000	    -38.95956786	      0.94559503	    -15.21221023	     -8.01067632	    -62.31062133	     58.65758952	    109.62019353	     87.93145051	      0.00000000	      0.00000000	     -0.31709760	    -63.52702553	     67.67634534	    103.08317793	     88.14365003	      0.00000000	      0.00000000
      4.72000000	    -35.83098652	      6.61421718	      7.48472287	     -0.43631313	      0.71900453	     -0.91816980	     97.94442326	    -24.21369629	      5.75558078	     88.15795916	      1.53864665	     30.45393251	      0.00000000	      0.00000000	     93.45173861	     -0.51484739	     -3.58851024	     84.65176319	      1.47745199	     30.81357490	      0.00000000	      0.00000000	    -39.00202605	      0.77643895	    -14.82948809	     -7.97363692	    -62.26214950	     58.68851073	    109.58817091	     87.90553588	      0.00000000	      0.00000000	     -0.57450541	    -63.54519931	     67.35660696	    103.04040186	     88.17863087	      0.00000000	      0.00000000
      4.72500000	    -39.22226482	      6.39681705	      2.82487095	     -0.44566050	      0.71131557	     -0.90607911	    101.46212834	    -17.33836095	      5.90770200	     86.94697352	      1.51751096	     29.18645596	      0.00000000	      0.00000000	     97.71911114	     -6.41428462	     -3.15019313	     85.18344637	      1.48673161	     30.07414814	      0.00000000	      0.00000000	    -35.17926256	     -2.85022608	    -10.91834041	     -8.21960681	    -62.07655891	     59.16444574	    110.11862229	     87.93730774	      0.00000000	      0.00000000	     -1.35300865	    -64.81886109	     67.22735870	    104.18430579	     88.14211130	      0.00000000	      0.00000000
      4.73000000	    -39.25852608	      6.46185167	      2.59833576	     -0.44596685	      0.71121283	     -0.90569269	    101.51598958	    -17.05015291	      5.96761132	     86.91054465	      1.51687516	     29.08623264	      0.00000000	      0.00000000	     97.76389425	     -6.67844475	     -3.20644624	     85.21476790	      1.48727827	     30.06293494	      0.00000000	      0.00000000	    -35.17845090	     -3.03127460	    -10.92679178	     -7.75823641	    -62.10517928	     59.62883760	    110.11356581	     87.95054799	      0.00000000	      0.00000000	     -1.98768269	    -64.83573208	     66.58946468	    104.20922467	     88.13750808	      0.00000000	      0.00000000
      4.73500000	    -39.43404636	      6.54303643	      2.39831414	     -0.44658291	      0.71084895	     -0.90543420	    101.73772081	    -16.77342334	      6.05296398	     86.81932882	      1.51528314	     29.01594278	      0.00000000	      0.00000000	     97.95955782	     -6.91113682	     -3.27573096	     85.21844952	      1.48734253	     30.05100455	      0.00000000	      0.00000000	    -35.01618086	     -3.22768006	    -10.98248328	     -7.22419617	    -62.13116520	     60.19167545	    110.12754996	     87.93450624	      0.00000000	      0.00000000	     -2.71777301	    -64.86033267	     65.92085679	    104.24689877	     88.14380626	      0.00000000	      0.00000000
      4.74000000	    -39.57515597	      6.46992484	      2.26815337	     -0.44707130	      0.71059147	     -0.90519657	    101.84808167	    -16.60941660	      5.95211106	     86.73868647	      1.51387567	     29.04814097	      0.00000000	      0.00000000	     98.14578310	     -7.04125625	     -3.13413185	     85.19015744	      1.48684874	     30.11055752	      0.00000000	      0.00000000	    -34.93415926	     -3.22903176	    -10.82462551	     -7.74445880	    -62.06431717	     59.62570503	    110.11498772	     87.83482445	      0.00000000	      0.00000000	     -3.40688743	    -64.79543204	     65.06938974	    104.23831063	     88.20864780	      0.00000000	      0.00000000
      4.74500000	    -35.67390831	      6.66746745	      7.88181360	     -0.43698248	      0.71939989	     -0.91993993	     97.89206600	    -24.83285061	      5.79651955	     88.15258813	      1.53855291	     30.31137424	      0.00000000	      0.00000000	     93.30589753	      0.04851818	     -3.63206590	     84.53386802	      1.47539433	     30.70624945	      0.00000000	      0.00000000	    -39.30393029	      1.17345907	    -15.48621924	     -6.61725538	    -62.45390605	     60.24246845	    109.63378502	     87.93189007	      0.00000000	      0.00000000	     -1.28886025	    -63.44612529	     66.83248804	    103.06440124	     88.14078847	      0.00000000	      0.00000000
      4.75000000	    -39.35840076	      6.55849566	      2.53892481	     -0.44704388	      0.71100364	     -0.90627374	    101.71755669	    -17.01304725	      6.05826176	     86.81681274	      1.51523923	     28.96124778	      0.00000000	      0.00000000	     97.89108161	     -6.69167499	     -3.30635801	     85.14480488	      1.48605719	     30.01455466	      0.00000000	      0.00000000	    -35.20522734	     -3.06953763	    -11.07115934	     -7.29412645	    -62.17068440	     60.23300203	    110.17160761	     87.92406451	      0.00000000	      0.00000000	     -2.36521682	    -64.82262236	     66.37469224	    104.28127614	     88.13882186	      0.00000000	      0.00000000
      4.75500000	    -39.35629558	      6.55003621	      2.54501462	     -0.44727294	      0.71098016	     -0.90647994	    101.72625475	    -17.03190573	      6.06577359	     86.79827216	      1.51491563	     28.94963721	      0.00000000	      0.00000000	     97.91725443	     -6.67118653	     -3.29916692	     85.15579491	      1.48624900	     30.00689674	      0.00000000	      0.00000000	    -35.27445065	     -3.02954137	    -11.10062646	     -7.50050599	    -62.19528696	     60.00763823	    110.20728488	     87.92991223	      0.00000000	      0.00000000	     -2.65404993	    -64.82384280	     66.02516621	    104.31006346	     88.14780618	      0.00000000	      0.00000000
      4.76000000	    -39.40224747	      6.68947448	      2.47509277	     -0.44757337	      0.71092886	     -0.90650908	    101.84685133	    -16.93858053	      6.21735288	     86.76886757	      1.51440243	     28.87427518	      0.00000000	      0.00000000	     97.93552108	     -6.76227897	     -3.46602823	     85.14066624	      1.48598495	     30.03539178	      0.00000000	      0.00000000	    -35.30301030	     -3.17287652	    -11.18248542	     -7.56727389	    -62.13655086	     59.91537976	    110.21907998	     87.91771544	      0.00000000	      0.00000000	     -3.26990074	    -64.82920291	     65.33374966	    104.34310604	     88.16465412	      0.00000000	      0.00000000
      4.76500000	    -35.81321561	      6.92864079	      7.72905126	     -0.43787673	      0.71934233	     -0.92019419	     98.24070244	    -24.64324931	      6.17761016	     88.10058854	      1.53764534	     29.76205178	      0.00000000	      0.00000000	     93.41253488	     -0.10128560	     -3.96530094	     84.43461605	      1.47366205	     30.41111764	      0.00000000	      0.00000000	    -39.42627317	      0.92686736	    -15.62859080	     -7.10838854	    -62.27004359	     59.62157175	    109.57642650	     87.91224070	      0.00000000	      0.00000000	     -2.19180218	    -63.42035192	     65.86562276	    103.00418311	     88.15108617	      0.00000000	      0.00000000
